<svg id="Capa_1_copia" data-name="Capa 1 copia" xmlns="http://www.w3.org/2000/svg" viewBox="0 0 792.19 572.69"><defs><style>.cls-1{fill:#4a278f;opacity:0.01;}.cls-1,.cls-10,.cls-11,.cls-12,.cls-13,.cls-14,.cls-15,.cls-16,.cls-17,.cls-2,.cls-20,.cls-21,.cls-3,.cls-4,.cls-5,.cls-6,.cls-7,.cls-8,.cls-9{fill-rule:evenodd;}.cls-1,.cls-10,.cls-11,.cls-12,.cls-13,.cls-15,.cls-2,.cls-3,.cls-5,.cls-6,.cls-7,.cls-8,.cls-9{isolation:isolate;}.cls-2{fill:#582cb2;}.cls-12,.cls-2,.cls-3{opacity:0;}.cls-3{fill:#5c29b7;}.cls-4{fill:#c99bd9;}.cls-5{fill:#1b0440;opacity:0.01;}.cls-6{fill:#37048e;opacity:0.17;}.cls-7{fill:#270953;opacity:0.06;}.cls-8{fill:#2b0563;opacity:0.02;}.cls-9{fill:#2f0869;opacity:0.17;}.cls-10{fill:#360382;opacity:0.18;}.cls-11{fill:#2f066c;}.cls-11,.cls-13{opacity:0.25;}.cls-12{fill:#28065a;}.cls-13{fill:#2e0564;}.cls-14{fill:#360a73;}.cls-15{fill:#1b0344;opacity:0.02;}.cls-16{fill:#423656;}.cls-17{fill:#7750a3;}.cls-18,.cls-21{fill:#fff;}.cls-19,.cls-20{fill:#5800d5;}</style></defs><path class="cls-1" d="M219,319.8q3.85,1.11,0,3.07C217.9,321.93,217.9,320.9,219,319.8Z" transform="translate(-109.09 -218.51)"/><path class="cls-2" d="M215.91,321.85c1.27,1.27.93,2.3-1,3.07l-1-1C214.62,323.2,215.31,322.52,215.91,321.85Z" transform="translate(-109.09 -218.51)"/><path class="cls-3" d="M577.94,333.11A4.83,4.83,0,0,1,581,337.2,4.86,4.86,0,0,1,577.94,333.11Z" transform="translate(-109.09 -218.51)"/><path class="cls-4" d="M330.78,350.5a51.07,51.07,0,0,1,6.15,10.23c-.41,1-1.09,1.22-2.05.51q-4.29-4.75-8.2-9.72a3.34,3.34,0,0,1,3.58,2.05A5,5,0,0,0,330.78,350.5Z" transform="translate(-109.09 -218.51)"/><path class="cls-5" d="M420,366.87a2.27,2.27,0,0,1,2.06,2.05c-.35.68-.69,1.36-1,2A5,5,0,0,1,420,366.87Z" transform="translate(-109.09 -218.51)"/><path class="cls-6" d="M346.16,388.36a71,71,0,0,1-2.05,31.72,9.41,9.41,0,0,1-3.08,4.09,11.67,11.67,0,0,1,2.05-6.14A85.42,85.42,0,0,0,346.16,388.36Z" transform="translate(-109.09 -218.51)"/><path class="cls-7" d="M341,424.17a9.62,9.62,0,0,1-3.07,7.16A15.54,15.54,0,0,1,341,424.17Z" transform="translate(-109.09 -218.51)"/><path class="cls-8" d="M335.91,434.4a4.58,4.58,0,0,1-3.08,5.12A4.57,4.57,0,0,1,335.91,434.4Z" transform="translate(-109.09 -218.51)"/><path class="cls-9" d="M332.83,439.52a7.47,7.47,0,0,1-5.13,6.65l1,1a61.34,61.34,0,0,1-8.21,5.63A57.43,57.43,0,0,1,332.83,439.52Z" transform="translate(-109.09 -218.51)"/><path class="cls-10" d="M771.68,453.85a2.93,2.93,0,0,1-1,2.55,48.54,48.54,0,0,1-7.92,3.58A21.51,21.51,0,0,1,771.68,453.85Z" transform="translate(-109.09 -218.51)"/><path class="cls-11" d="M687,453.85a23.45,23.45,0,0,1,9.08,7.16A13.77,13.77,0,0,1,687,453.85Z" transform="translate(-109.09 -218.51)"/><path class="cls-12" d="M706.2,465.1a3.6,3.6,0,0,1,3,3.07Q706.2,468.17,706.2,465.1Z" transform="translate(-109.09 -218.51)"/><path class="cls-13" d="M715.28,469.19a6.17,6.17,0,0,1,7.07,1A21.37,21.37,0,0,1,715.28,469.19Z" transform="translate(-109.09 -218.51)"/><path class="cls-14" d="M490.77,567.42a25.51,25.51,0,0,0-8.21,1,4.55,4.55,0,0,1,4.62-2.05A6.33,6.33,0,0,1,490.77,567.42Z" transform="translate(-109.09 -218.51)"/><path class="cls-15" d="M599.48,572.54h3.08Q601.71,580.43,599.48,572.54Z" transform="translate(-109.09 -218.51)"/><path class="cls-16" d="M501,619.61a31.44,31.44,0,0,1,1,8.18A16.1,16.1,0,0,1,500,636,71.44,71.44,0,0,0,501,619.61Z" transform="translate(-109.09 -218.51)"/><path class="cls-17" d="M521.54,637q2,2.52,4.1,5.12Q521.34,641.4,521.54,637Z" transform="translate(-109.09 -218.51)"/><ellipse class="cls-18" cx="408.31" cy="176.71" rx="74.56" ry="74.39"/><ellipse class="cls-18" cx="408.31" cy="382.68" rx="74.56" ry="74.39"/><ellipse class="cls-19" cx="173" cy="183.93" rx="74.56" ry="74.39"/><ellipse class="cls-19" cx="169.32" cy="376.78" rx="70.88" ry="74.39"/><ellipse class="cls-19" cx="616.36" cy="180.31" rx="70.88" ry="74.39"/><ellipse class="cls-19" cx="616.36" cy="380.4" rx="70.88" ry="74.39"/><path class="cls-20" d="M484.63,396.33l-.21-33.88a10.68,10.68,0,0,1,16-9.34l29.49,16.76,29.48,16.76a10.66,10.66,0,0,1,.11,18.48l-29.27,17.12-29.27,17.12a10.68,10.68,0,0,1-16.08-9.14Z" transform="translate(-109.09 -218.51)"/><rect class="cls-19" x="415.08" y="339.71" width="32.65" height="90.14" rx="15.92"/><rect class="cls-19" x="368.89" y="339.71" width="32.65" height="90.14" rx="15.92"/><path class="cls-21" d="M228.83,218.51c-68.77,4.4-113.71,59.95-116.4,128.92-4.12,105.39-5.12,210.78,1,318.22,3.38,59.12,40.77,117.29,100,119.21,109.59,3.54,193.75,5.72,274.9,6.22v.12l16.84,0,16.83,0v-.12c81.15-.5,165.32-2.68,274.91-6.22,59.22-1.92,96.61-60.09,100-119.21,6.14-107.44,5.14-212.83,1-318.22-2.7-69-47.64-124.52-116.41-128.92m-266,63.84,6.29.46c80.7-.06,157.62-1.91,242.26,2.2,6.29.31,12.27,3.4,18.46,5.63q44.26,23.72,49.23,73.67c.14,95.93,5,189-.52,288-.69,12.47-7.47,23.71-13.33,34.79-12.54,19-31.26,32.51-52.82,33.25-85.82,2.94-173.31.44-259.94.45s-173.29-.15-259.95-.45q-34-4.78-52.82-33.25c-5.86-11.08-12.63-22.32-13.33-34.79-5.49-97.4-.66-192.11-.51-288,3.3-33.3,18.63-60,49.22-73.67,6-2.67,12.09-5.36,18.46-5.63,105.22-4.44,160.87-3.58,239-2.66h6.39" transform="translate(-109.09 -218.51)"/></svg>